<?xml version="1.0" standalone="yes"?>

<svg version="1.1" viewBox="0.0 0.0 660.0 660.0" fill="none" stroke="none" stroke-linecap="square" stroke-miterlimit="10" xmlns="http://www.w3.org/2000/svg" xmlns:xlink="http://www.w3.org/1999/xlink"><clipPath id="p.0"><path d="m0 0l660.0 0l0 660.0l-660.0 0l0 -660.0z" clip-rule="nonzero"></path></clipPath><g clip-path="url(#p.0)"><path fill="#000000" fill-opacity="0.0" d="m0 0l660.0 0l0 660.0l-660.0 0z" fill-rule="evenodd"></path><path fill="#ffd966" d="m7.991744 330.01337l0 0c0 -177.75742 144.1784 -321.85828 322.03152 -321.85828l0 0c85.40805 0 167.31802 33.909973 227.71063 94.2701c60.39264 60.36013 94.32086 142.22604 94.32086 227.58817l0 0c0 177.75742 -144.17844 321.85828 -322.0315 321.85828l0 0c-177.8531 0 -322.03152 -144.10086 -322.03152 -321.85828zm141.18634 0l0 0c0 99.78235 80.96713 180.6719 180.84517 180.6719c99.87799 0 180.84512 -80.88956 180.84512 -180.6719c0 -99.78235 -80.96713 -180.67192 -180.84512 -180.67192l0 0c-99.87804 0 -180.84517 80.88957 -180.84517 180.67192z" fill-rule="evenodd"></path><path fill="#ffe599" d="m334.60385 6.4308815l0 0c115.55066 1.452095 221.444 64.468185 277.78964 165.30981c56.34558 100.841644 54.582764 224.1879 -4.6244507 323.57364l-124.061615 -73.83328l0 0c32.815643 -55.08954 33.821136 -123.4386 2.6374512 -179.28722c-31.183685 -55.848618 -89.81598 -90.706696 -153.79901 -91.436615z" fill-rule="evenodd"></path><path fill="#f4cccc" d="m47.89789 488.8083l0 0c-57.002197 -100.7518 -55.64699 -224.211 3.553173 -323.69394c59.20017 -99.48294 167.21033 -159.80682 283.1886 -158.16138l-2.0578918 144.2893l0 0c-64.34418 -0.9090271 -124.26239 32.504166 -157.08043 87.59541c-32.81804 55.091232 -33.522736 123.44499 -1.8474274 179.19484z" fill-rule="evenodd"></path><path fill="#93c47d" d="m608.4351 495.15366l0 0c-58.81195 99.427216 -166.2313 159.82108 -281.7902 158.42966c-115.558914 -1.3914795 -221.69916 -64.35687 -278.43475 -165.17545l125.81351 -70.721405c31.456863 55.89438 90.271225 90.81784 154.27528 91.60733c64.00403 0.78948975 123.467255 -32.67502 155.97733 -87.780396z" fill-rule="evenodd"></path><path fill="#ffe599" d="m334.52637 150.63106l-32.078735 -71.85827l32.11023 -71.85827z" fill-rule="evenodd"></path><path fill="#93c47d" d="m484.35193 421.90323l78.64569 9.669281l45.700745 64.66144z" fill-rule="evenodd"></path><path fill="#ffe599" d="m334.57904 151.16776l-32.11023 -72.4252l32.015747 -72.42519z" fill-rule="evenodd"></path><path fill="#f4cccc" d="m173.5525 416.7103l-47.55905 63.66928l-79.055115 7.795288z" fill-rule="evenodd"></path></g></svg>

