<?xml version="1.0" standalone="yes"?>

<svg version="1.1" viewBox="0.0 0.0 600.0 600.0" fill="none" stroke="none" stroke-linecap="square" stroke-miterlimit="10" xmlns="http://www.w3.org/2000/svg" xmlns:xlink="http://www.w3.org/1999/xlink"><clipPath id="p.0"><path d="m0 0l600.0 0l0 600.0l-600.0 0l0 -600.0z" clip-rule="nonzero"></path></clipPath><g clip-path="url(#p.0)"><path fill="#000000" fill-opacity="0.0" d="m0 0l600.0 0l0 600.0l-600.0 0z" fill-rule="evenodd"></path><path fill="#b6d7a8" d="m234.84251 192.0l128.7559 0l0 387.68506l-128.7559 0z" fill-rule="evenodd"></path><path fill="#b6d7a8" d="m234.94226 192.00262l64.37796 -34.078735l64.37793 34.078735z" fill-rule="evenodd"></path><path fill="#ffe599" d="m234.94095 78.19882l0 0c0 -31.96294 28.822998 -57.87402 64.37796 -57.87402l0 0c35.554962 0 64.37793 25.91108 64.37793 57.87402l0 0c0 31.962936 -28.822968 57.87401 -64.37793 57.87401l0 0c-35.554962 0 -64.37796 -25.911072 -64.37796 -57.87401z" fill-rule="evenodd"></path></g></svg>

